<svg width="207" height="87" viewBox="0 0 207 87" fill="none" xmlns="http://www.w3.org/2000/svg">
<rect width="8" height="87" fill="#515B92"/>
<path d="M17.6322 22.076H29.2483V24.548H24.6642V39.5H22.0962V24.548H17.6322V22.076ZM34.509 22.076L40.125 36.092L38.661 35.828L43.917 22.076H46.941L39.189 40.316L31.461 22.076H34.509ZM55.1933 22.076C56.4893 22.076 57.5933 22.3 58.5053 22.748C59.4333 23.18 60.1373 23.804 60.6173 24.62C61.1133 25.436 61.3613 26.428 61.3613 27.596C61.3613 28.284 61.2573 28.964 61.0493 29.636C60.8413 30.308 60.5053 30.924 60.0413 31.484C59.5933 32.028 58.9933 32.468 58.2413 32.804C57.4893 33.124 56.5773 33.284 55.5053 33.284H52.9613V39.5H50.3933V22.076H55.1933ZM55.5053 30.812C56.1453 30.812 56.6813 30.708 57.1133 30.5C57.5453 30.276 57.8813 29.996 58.1213 29.66C58.3773 29.324 58.5533 28.98 58.6493 28.628C58.7613 28.26 58.8173 27.932 58.8173 27.644C58.8173 27.324 58.7613 26.988 58.6493 26.636C58.5533 26.268 58.3853 25.932 58.1453 25.628C57.9053 25.308 57.5773 25.052 57.1613 24.86C56.7453 24.652 56.2253 24.548 55.6013 24.548H52.9613V30.812H55.5053ZM74.0262 25.412C73.4182 25.092 72.7622 24.82 72.0582 24.596C71.3542 24.372 70.6742 24.26 70.0182 24.26C69.1222 24.26 68.4102 24.468 67.8822 24.884C67.3542 25.284 67.0902 25.836 67.0902 26.54C67.0902 27.036 67.2662 27.468 67.6182 27.836C67.9702 28.204 68.4262 28.524 68.9862 28.796C69.5462 29.068 70.1382 29.324 70.7622 29.564C71.2902 29.756 71.8102 29.988 72.3222 30.26C72.8502 30.516 73.3222 30.836 73.7382 31.22C74.1702 31.604 74.5062 32.084 74.7462 32.66C75.0022 33.22 75.1302 33.908 75.1302 34.724C75.1302 35.652 74.8982 36.492 74.4342 37.244C73.9862 37.996 73.3302 38.596 72.4662 39.044C71.6182 39.476 70.5862 39.692 69.3702 39.692C68.6342 39.692 67.9142 39.612 67.2102 39.452C66.5222 39.276 65.8662 39.052 65.2422 38.78C64.6342 38.492 64.0822 38.18 63.5862 37.844L64.7382 35.852C65.1222 36.124 65.5622 36.388 66.0582 36.644C66.5542 36.884 67.0662 37.076 67.5942 37.22C68.1382 37.364 68.6502 37.436 69.1302 37.436C69.6582 37.436 70.1782 37.348 70.6902 37.172C71.2022 36.98 71.6262 36.692 71.9622 36.308C72.2982 35.908 72.4662 35.388 72.4662 34.748C72.4662 34.204 72.3142 33.748 72.0102 33.38C71.7222 32.996 71.3302 32.668 70.8342 32.396C70.3542 32.124 69.8342 31.884 69.2742 31.676C68.7302 31.468 68.1782 31.236 67.6182 30.98C67.0582 30.724 66.5382 30.42 66.0582 30.068C65.5782 29.7 65.1862 29.252 64.8822 28.724C64.5942 28.18 64.4502 27.516 64.4502 26.732C64.4502 25.804 64.6662 24.996 65.0982 24.308C65.5462 23.604 66.1622 23.052 66.9462 22.652C67.7302 22.252 68.6342 22.028 69.6582 21.98C70.8262 21.98 71.8422 22.124 72.7062 22.412C73.5702 22.7 74.3382 23.044 75.0102 23.444L74.0262 25.412ZM88.095 25.412C87.487 25.092 86.831 24.82 86.127 24.596C85.423 24.372 84.743 24.26 84.087 24.26C83.191 24.26 82.479 24.468 81.951 24.884C81.423 25.284 81.159 25.836 81.159 26.54C81.159 27.036 81.335 27.468 81.687 27.836C82.039 28.204 82.495 28.524 83.055 28.796C83.615 29.068 84.207 29.324 84.831 29.564C85.359 29.756 85.879 29.988 86.391 30.26C86.919 30.516 87.391 30.836 87.807 31.22C88.239 31.604 88.575 32.084 88.815 32.66C89.071 33.22 89.199 33.908 89.199 34.724C89.199 35.652 88.967 36.492 88.503 37.244C88.055 37.996 87.399 38.596 86.535 39.044C85.687 39.476 84.655 39.692 83.439 39.692C82.703 39.692 81.983 39.612 81.279 39.452C80.591 39.276 79.935 39.052 79.311 38.78C78.703 38.492 78.151 38.18 77.655 37.844L78.807 35.852C79.191 36.124 79.631 36.388 80.127 36.644C80.623 36.884 81.135 37.076 81.663 37.22C82.207 37.364 82.719 37.436 83.199 37.436C83.727 37.436 84.247 37.348 84.759 37.172C85.271 36.98 85.695 36.692 86.031 36.308C86.367 35.908 86.535 35.388 86.535 34.748C86.535 34.204 86.383 33.748 86.079 33.38C85.791 32.996 85.399 32.668 84.903 32.396C84.423 32.124 83.903 31.884 83.343 31.676C82.799 31.468 82.247 31.236 81.687 30.98C81.127 30.724 80.607 30.42 80.127 30.068C79.647 29.7 79.255 29.252 78.951 28.724C78.663 28.18 78.519 27.516 78.519 26.732C78.519 25.804 78.735 24.996 79.167 24.308C79.615 23.604 80.231 23.052 81.015 22.652C81.799 22.252 82.703 22.028 83.727 21.98C84.895 21.98 85.911 22.124 86.775 22.412C87.639 22.7 88.407 23.044 89.079 23.444L88.095 25.412Z" fill="#515B92"/>
<path d="M111.5 50.125H132.5L122 39.625L111.5 50.125Z" fill="#515B92"/>
<path d="M137.75 16.875H106.25C104.325 16.875 102.75 18.45 102.75 20.375V41.375C102.75 43.3 104.325 44.875 106.25 44.875H113.25V41.375H106.25V20.375H137.75V41.375H130.75V44.875H137.75C139.675 44.875 141.25 43.3 141.25 41.375V20.375C141.25 18.45 139.675 16.875 137.75 16.875Z" fill="#515B92"/>
<path d="M17.5896 67.5V58.5H17.6016L22.2336 65.064L21.6816 64.944L26.2896 58.5H26.3136V67.5H25.0416V61.392L25.1256 62.052L21.9096 66.6H21.8856L18.6096 62.052L18.8256 61.452V67.5H17.5896ZM30.6816 67.62C30.2096 67.62 29.7816 67.524 29.3976 67.332C29.0136 67.132 28.7096 66.836 28.4856 66.444C28.2616 66.052 28.1496 65.568 28.1496 64.992C28.1496 64.424 28.2656 63.936 28.4976 63.528C28.7376 63.12 29.0496 62.808 29.4336 62.592C29.8256 62.368 30.2496 62.256 30.7056 62.256C31.1856 62.256 31.5776 62.36 31.8816 62.568C32.1936 62.768 32.4376 63.004 32.6136 63.276L32.5296 63.468L32.6496 62.472H33.7896V67.5H32.5536V66.24L32.6856 66.54C32.6536 66.604 32.5856 66.696 32.4816 66.816C32.3776 66.928 32.2376 67.048 32.0616 67.176C31.8936 67.304 31.6936 67.412 31.4616 67.5C31.2376 67.58 30.9776 67.62 30.6816 67.62ZM31.0176 66.612C31.2816 66.612 31.5176 66.564 31.7256 66.468C31.9336 66.372 32.1096 66.236 32.2536 66.06C32.3976 65.884 32.4976 65.676 32.5536 65.436V64.392C32.4896 64.168 32.3816 63.976 32.2296 63.816C32.0776 63.648 31.8936 63.516 31.6776 63.42C31.4696 63.324 31.2376 63.276 30.9816 63.276C30.6936 63.276 30.4296 63.348 30.1896 63.492C29.9496 63.628 29.7576 63.82 29.6136 64.068C29.4696 64.316 29.3976 64.604 29.3976 64.932C29.3976 65.244 29.4696 65.528 29.6136 65.784C29.7656 66.04 29.9656 66.244 30.2136 66.396C30.4616 66.54 30.7296 66.612 31.0176 66.612ZM36.8872 62.472L36.9952 63.624L36.9472 63.468C37.1152 63.108 37.3752 62.82 37.7272 62.604C38.0792 62.38 38.4952 62.268 38.9752 62.268C39.4472 62.268 39.8352 62.408 40.1392 62.688C40.4512 62.968 40.6112 63.332 40.6192 63.78V67.5H39.3832V64.212C39.3752 63.956 39.2992 63.748 39.1552 63.588C39.0112 63.42 38.7872 63.332 38.4832 63.324C38.2112 63.324 37.9632 63.408 37.7392 63.576C37.5152 63.736 37.3392 63.956 37.2112 64.236C37.0832 64.516 37.0192 64.84 37.0192 65.208V67.5H35.7832V62.472H36.8872ZM44.7097 67.62C44.2377 67.62 43.8097 67.524 43.4257 67.332C43.0417 67.132 42.7377 66.836 42.5137 66.444C42.2897 66.052 42.1777 65.568 42.1777 64.992C42.1777 64.424 42.2937 63.936 42.5257 63.528C42.7657 63.12 43.0777 62.808 43.4617 62.592C43.8537 62.368 44.2777 62.256 44.7337 62.256C45.2137 62.256 45.6057 62.36 45.9097 62.568C46.2217 62.768 46.4657 63.004 46.6417 63.276L46.5577 63.468L46.6777 62.472H47.8177V67.5H46.5817V66.24L46.7137 66.54C46.6817 66.604 46.6137 66.696 46.5097 66.816C46.4057 66.928 46.2657 67.048 46.0897 67.176C45.9217 67.304 45.7217 67.412 45.4897 67.5C45.2657 67.58 45.0057 67.62 44.7097 67.62ZM45.0457 66.612C45.3097 66.612 45.5457 66.564 45.7537 66.468C45.9617 66.372 46.1377 66.236 46.2817 66.06C46.4257 65.884 46.5257 65.676 46.5817 65.436V64.392C46.5177 64.168 46.4097 63.976 46.2577 63.816C46.1057 63.648 45.9217 63.516 45.7057 63.42C45.4977 63.324 45.2657 63.276 45.0097 63.276C44.7217 63.276 44.4577 63.348 44.2177 63.492C43.9777 63.628 43.7857 63.82 43.6417 64.068C43.4977 64.316 43.4257 64.604 43.4257 64.932C43.4257 65.244 43.4977 65.528 43.6417 65.784C43.7937 66.04 43.9937 66.244 44.2417 66.396C44.4897 66.54 44.7577 66.612 45.0457 66.612ZM52.2713 69.996C51.8793 69.996 51.5393 69.952 51.2513 69.864C50.9633 69.776 50.7033 69.652 50.4713 69.492C50.2473 69.34 50.0313 69.176 49.8233 69L50.5553 68.148C50.8033 68.38 51.0593 68.564 51.3233 68.7C51.5873 68.844 51.8953 68.916 52.2473 68.916C52.5993 68.916 52.8993 68.856 53.1473 68.736C53.4033 68.624 53.5993 68.464 53.7353 68.256C53.8713 68.048 53.9393 67.8 53.9393 67.512L53.9513 66.204L54.0353 66.444C53.8993 66.772 53.6473 67.052 53.2793 67.284C52.9113 67.508 52.4593 67.62 51.9233 67.62C51.4673 67.62 51.0433 67.504 50.6513 67.272C50.2673 67.04 49.9593 66.724 49.7273 66.324C49.4953 65.924 49.3793 65.472 49.3793 64.968C49.3793 64.44 49.4993 63.976 49.7393 63.576C49.9873 63.168 50.3113 62.848 50.7113 62.616C51.1113 62.376 51.5393 62.256 51.9953 62.256C52.4433 62.256 52.8433 62.344 53.1953 62.52C53.5473 62.688 53.8113 62.9 53.9873 63.156L53.9153 63.36L54.0473 62.472H55.1873V67.524C55.1873 67.988 55.0633 68.404 54.8153 68.772C54.5753 69.148 54.2393 69.444 53.8073 69.66C53.3753 69.884 52.8633 69.996 52.2713 69.996ZM50.6273 64.932C50.6273 65.244 50.6993 65.528 50.8433 65.784C50.9873 66.04 51.1833 66.244 51.4313 66.396C51.6873 66.54 51.9713 66.612 52.2833 66.612C52.5633 66.612 52.8153 66.564 53.0393 66.468C53.2633 66.364 53.4513 66.228 53.6033 66.06C53.7633 65.884 53.8793 65.68 53.9513 65.448V64.404C53.8793 64.172 53.7633 63.976 53.6033 63.816C53.4433 63.648 53.2513 63.516 53.0273 63.42C52.8033 63.324 52.5553 63.276 52.2833 63.276C51.9713 63.276 51.6873 63.348 51.4313 63.492C51.1833 63.628 50.9873 63.82 50.8433 64.068C50.6993 64.316 50.6273 64.604 50.6273 64.932ZM59.5409 67.62C58.9569 67.62 58.4569 67.508 58.0409 67.284C57.6249 67.052 57.3049 66.736 57.0809 66.336C56.8569 65.928 56.7449 65.464 56.7449 64.944C56.7449 64.448 56.8689 64 57.1169 63.6C57.3729 63.192 57.7129 62.868 58.1369 62.628C58.5689 62.388 59.0449 62.268 59.5649 62.268C60.2369 62.268 60.7929 62.464 61.2329 62.856C61.6809 63.248 61.9809 63.796 62.1329 64.5L58.0409 65.916L57.7529 65.196L61.0289 64.02L60.7769 64.176C60.6809 63.928 60.5289 63.712 60.3209 63.528C60.1129 63.336 59.8289 63.24 59.4689 63.24C59.1809 63.24 58.9209 63.312 58.6889 63.456C58.4649 63.592 58.2849 63.784 58.1489 64.032C58.0209 64.272 57.9569 64.556 57.9569 64.884C57.9569 65.22 58.0249 65.516 58.1609 65.772C58.3049 66.02 58.4969 66.216 58.7369 66.36C58.9849 66.504 59.2609 66.576 59.5649 66.576C59.7809 66.576 59.9849 66.536 60.1769 66.456C60.3769 66.376 60.5649 66.276 60.7409 66.156L61.3049 67.068C61.0409 67.236 60.7529 67.372 60.4409 67.476C60.1369 67.572 59.8369 67.62 59.5409 67.62ZM64.709 62.472L64.817 63.552L64.769 63.468C64.961 63.092 65.225 62.8 65.561 62.592C65.897 62.376 66.285 62.268 66.725 62.268C66.997 62.268 67.241 62.312 67.457 62.4C67.681 62.488 67.865 62.612 68.009 62.772C68.153 62.932 68.245 63.132 68.285 63.372L68.225 63.408C68.425 63.056 68.689 62.78 69.017 62.58C69.353 62.372 69.709 62.268 70.085 62.268C70.573 62.268 70.961 62.408 71.249 62.688C71.545 62.968 71.697 63.328 71.705 63.768V67.5H70.481V64.236C70.473 63.988 70.413 63.78 70.301 63.612C70.197 63.444 70.009 63.352 69.737 63.336C69.449 63.336 69.193 63.424 68.969 63.6C68.753 63.776 68.585 64.004 68.465 64.284C68.345 64.564 68.281 64.864 68.273 65.184V67.5H67.037V64.236C67.029 63.988 66.969 63.78 66.857 63.612C66.745 63.444 66.549 63.352 66.269 63.336C65.981 63.336 65.729 63.424 65.513 63.6C65.297 63.776 65.129 64.008 65.009 64.296C64.897 64.576 64.841 64.872 64.841 65.184V67.5H63.605V62.472H64.709ZM76.0651 67.62C75.4811 67.62 74.9811 67.508 74.5651 67.284C74.1491 67.052 73.8291 66.736 73.6051 66.336C73.3811 65.928 73.2691 65.464 73.2691 64.944C73.2691 64.448 73.3931 64 73.6411 63.6C73.8971 63.192 74.2371 62.868 74.6611 62.628C75.0931 62.388 75.5691 62.268 76.0891 62.268C76.7611 62.268 77.3171 62.464 77.7571 62.856C78.2051 63.248 78.5051 63.796 78.6571 64.5L74.5651 65.916L74.2771 65.196L77.5531 64.02L77.3011 64.176C77.2051 63.928 77.0531 63.712 76.8451 63.528C76.6371 63.336 76.3531 63.24 75.9931 63.24C75.7051 63.24 75.4451 63.312 75.2131 63.456C74.9891 63.592 74.8091 63.784 74.6731 64.032C74.5451 64.272 74.4811 64.556 74.4811 64.884C74.4811 65.22 74.5491 65.516 74.6851 65.772C74.8291 66.02 75.0211 66.216 75.2611 66.36C75.5091 66.504 75.7851 66.576 76.0891 66.576C76.3051 66.576 76.5091 66.536 76.7011 66.456C76.9011 66.376 77.0891 66.276 77.2651 66.156L77.8291 67.068C77.5651 67.236 77.2771 67.372 76.9651 67.476C76.6611 67.572 76.3611 67.62 76.0651 67.62ZM81.2332 62.472L81.3412 63.624L81.2932 63.468C81.4612 63.108 81.7212 62.82 82.0732 62.604C82.4252 62.38 82.8412 62.268 83.3212 62.268C83.7932 62.268 84.1812 62.408 84.4852 62.688C84.7972 62.968 84.9572 63.332 84.9652 63.78V67.5H83.7292V64.212C83.7212 63.956 83.6452 63.748 83.5012 63.588C83.3572 63.42 83.1332 63.332 82.8292 63.324C82.5572 63.324 82.3092 63.408 82.0852 63.576C81.8612 63.736 81.6852 63.956 81.5572 64.236C81.4292 64.516 81.3652 64.84 81.3652 65.208V67.5H80.1292V62.472H81.2332ZM87.4358 60.264H88.6718V62.484H90.0158V63.456H88.6718V67.5H87.4358V63.456H86.5478V62.484H87.4358V60.264ZM95.6467 58.788H96.9307V67.5H95.6467V58.788ZM100.301 62.472L100.409 63.624L100.361 63.468C100.529 63.108 100.789 62.82 101.141 62.604C101.493 62.38 101.909 62.268 102.389 62.268C102.861 62.268 103.249 62.408 103.553 62.688C103.865 62.968 104.025 63.332 104.033 63.78V67.5H102.797V64.212C102.789 63.956 102.713 63.748 102.569 63.588C102.425 63.42 102.201 63.332 101.897 63.324C101.625 63.324 101.377 63.408 101.153 63.576C100.929 63.736 100.753 63.956 100.625 64.236C100.497 64.516 100.433 64.84 100.433 65.208V67.5H99.1972V62.472H100.301ZM106.444 67.5V63.564H105.592V62.472H106.444V60.432C106.444 59.712 106.616 59.156 106.96 58.764C107.304 58.372 107.804 58.176 108.46 58.176C108.636 58.176 108.832 58.204 109.048 58.26C109.264 58.308 109.456 58.388 109.624 58.5L109.108 59.4C109.036 59.32 108.952 59.264 108.856 59.232C108.768 59.2 108.676 59.184 108.58 59.184C108.3 59.184 108.08 59.28 107.92 59.472C107.76 59.664 107.68 59.992 107.68 60.456V62.472H109.264V63.564H107.68V67.5H106.444ZM110.098 64.932C110.098 64.428 110.218 63.976 110.458 63.576C110.698 63.168 111.03 62.848 111.454 62.616C111.878 62.384 112.362 62.268 112.906 62.268C113.458 62.268 113.942 62.384 114.358 62.616C114.774 62.848 115.094 63.168 115.318 63.576C115.55 63.976 115.666 64.428 115.666 64.932C115.666 65.436 115.55 65.892 115.318 66.3C115.094 66.708 114.774 67.032 114.358 67.272C113.942 67.504 113.454 67.62 112.894 67.62C112.358 67.62 111.878 67.512 111.454 67.296C111.038 67.08 110.706 66.772 110.458 66.372C110.218 65.964 110.098 65.484 110.098 64.932ZM111.346 64.944C111.346 65.256 111.414 65.54 111.55 65.796C111.686 66.044 111.87 66.244 112.102 66.396C112.334 66.54 112.594 66.612 112.882 66.612C113.178 66.612 113.442 66.54 113.674 66.396C113.906 66.244 114.086 66.044 114.214 65.796C114.35 65.54 114.418 65.256 114.418 64.944C114.418 64.632 114.35 64.352 114.214 64.104C114.086 63.856 113.906 63.656 113.674 63.504C113.442 63.352 113.178 63.276 112.882 63.276C112.586 63.276 112.322 63.352 112.09 63.504C111.858 63.656 111.674 63.86 111.538 64.116C111.41 64.364 111.346 64.64 111.346 64.944ZM118.332 62.472L118.452 63.912L118.392 63.72C118.528 63.416 118.72 63.156 118.968 62.94C119.216 62.724 119.472 62.56 119.736 62.448C120.008 62.328 120.236 62.268 120.42 62.268L120.36 63.492C119.976 63.468 119.64 63.54 119.352 63.708C119.072 63.876 118.852 64.1 118.692 64.38C118.532 64.66 118.452 64.96 118.452 65.28V67.5H117.228V62.472H118.332ZM123.025 62.472L123.133 63.552L123.085 63.468C123.277 63.092 123.541 62.8 123.877 62.592C124.213 62.376 124.601 62.268 125.041 62.268C125.313 62.268 125.557 62.312 125.773 62.4C125.997 62.488 126.181 62.612 126.325 62.772C126.469 62.932 126.561 63.132 126.601 63.372L126.541 63.408C126.741 63.056 127.005 62.78 127.333 62.58C127.669 62.372 128.025 62.268 128.401 62.268C128.889 62.268 129.277 62.408 129.565 62.688C129.861 62.968 130.013 63.328 130.021 63.768V67.5H128.797V64.236C128.789 63.988 128.729 63.78 128.617 63.612C128.513 63.444 128.325 63.352 128.053 63.336C127.765 63.336 127.509 63.424 127.285 63.6C127.069 63.776 126.901 64.004 126.781 64.284C126.661 64.564 126.597 64.864 126.589 65.184V67.5H125.353V64.236C125.345 63.988 125.285 63.78 125.173 63.612C125.061 63.444 124.865 63.352 124.585 63.336C124.297 63.336 124.045 63.424 123.829 63.6C123.613 63.776 123.445 64.008 123.325 64.296C123.213 64.576 123.157 64.872 123.157 65.184V67.5H121.921V62.472H123.025ZM134.118 67.62C133.646 67.62 133.218 67.524 132.834 67.332C132.45 67.132 132.146 66.836 131.922 66.444C131.698 66.052 131.586 65.568 131.586 64.992C131.586 64.424 131.702 63.936 131.934 63.528C132.174 63.12 132.486 62.808 132.87 62.592C133.262 62.368 133.686 62.256 134.142 62.256C134.622 62.256 135.014 62.36 135.318 62.568C135.63 62.768 135.874 63.004 136.05 63.276L135.966 63.468L136.086 62.472H137.226V67.5H135.99V66.24L136.122 66.54C136.09 66.604 136.022 66.696 135.918 66.816C135.814 66.928 135.674 67.048 135.498 67.176C135.33 67.304 135.13 67.412 134.898 67.5C134.674 67.58 134.414 67.62 134.118 67.62ZM134.454 66.612C134.718 66.612 134.954 66.564 135.162 66.468C135.37 66.372 135.546 66.236 135.69 66.06C135.834 65.884 135.934 65.676 135.99 65.436V64.392C135.926 64.168 135.818 63.976 135.666 63.816C135.514 63.648 135.33 63.516 135.114 63.42C134.906 63.324 134.674 63.276 134.418 63.276C134.13 63.276 133.866 63.348 133.626 63.492C133.386 63.628 133.194 63.82 133.05 64.068C132.906 64.316 132.834 64.604 132.834 64.932C132.834 65.244 132.906 65.528 133.05 65.784C133.202 66.04 133.402 66.244 133.65 66.396C133.898 66.54 134.166 66.612 134.454 66.612ZM139.699 60.264H140.935V62.484H142.279V63.456H140.935V67.5H139.699V63.456H138.811V62.484H139.699V60.264ZM143.714 62.472H144.95V67.5H143.714V62.472ZM143.642 60.672C143.642 60.48 143.718 60.32 143.87 60.192C144.022 60.064 144.186 60 144.362 60C144.546 60 144.71 60.064 144.854 60.192C144.998 60.32 145.07 60.48 145.07 60.672C145.07 60.864 144.998 61.024 144.854 61.152C144.71 61.272 144.546 61.332 144.362 61.332C144.186 61.332 144.022 61.272 143.87 61.152C143.718 61.024 143.642 60.864 143.642 60.672ZM146.499 64.932C146.499 64.428 146.619 63.976 146.859 63.576C147.099 63.168 147.431 62.848 147.855 62.616C148.279 62.384 148.763 62.268 149.307 62.268C149.859 62.268 150.343 62.384 150.759 62.616C151.175 62.848 151.495 63.168 151.719 63.576C151.951 63.976 152.067 64.428 152.067 64.932C152.067 65.436 151.951 65.892 151.719 66.3C151.495 66.708 151.175 67.032 150.759 67.272C150.343 67.504 149.855 67.62 149.295 67.62C148.759 67.62 148.279 67.512 147.855 67.296C147.439 67.08 147.107 66.772 146.859 66.372C146.619 65.964 146.499 65.484 146.499 64.932ZM147.747 64.944C147.747 65.256 147.815 65.54 147.951 65.796C148.087 66.044 148.271 66.244 148.503 66.396C148.735 66.54 148.995 66.612 149.283 66.612C149.579 66.612 149.843 66.54 150.075 66.396C150.307 66.244 150.487 66.044 150.615 65.796C150.751 65.54 150.819 65.256 150.819 64.944C150.819 64.632 150.751 64.352 150.615 64.104C150.487 63.856 150.307 63.656 150.075 63.504C149.843 63.352 149.579 63.276 149.283 63.276C148.987 63.276 148.723 63.352 148.491 63.504C148.259 63.656 148.075 63.86 147.939 64.116C147.811 64.364 147.747 64.64 147.747 64.944ZM154.732 62.472L154.84 63.624L154.792 63.468C154.96 63.108 155.22 62.82 155.572 62.604C155.924 62.38 156.34 62.268 156.82 62.268C157.292 62.268 157.68 62.408 157.984 62.688C158.296 62.968 158.456 63.332 158.464 63.78V67.5H157.228V64.212C157.22 63.956 157.144 63.748 157 63.588C156.856 63.42 156.632 63.332 156.328 63.324C156.056 63.324 155.808 63.408 155.584 63.576C155.36 63.736 155.184 63.956 155.056 64.236C154.928 64.516 154.864 64.84 154.864 65.208V67.5H153.628V62.472H154.732ZM169.187 60.456C168.883 60.296 168.555 60.16 168.203 60.048C167.851 59.936 167.511 59.88 167.183 59.88C166.735 59.88 166.379 59.984 166.115 60.192C165.851 60.392 165.719 60.668 165.719 61.02C165.719 61.268 165.807 61.484 165.983 61.668C166.159 61.852 166.387 62.012 166.667 62.148C166.947 62.284 167.243 62.412 167.555 62.532C167.819 62.628 168.079 62.744 168.335 62.88C168.599 63.008 168.835 63.168 169.043 63.36C169.259 63.552 169.427 63.792 169.547 64.08C169.675 64.36 169.739 64.704 169.739 65.112C169.739 65.576 169.623 65.996 169.391 66.372C169.167 66.748 168.839 67.048 168.407 67.272C167.983 67.488 167.467 67.596 166.859 67.596C166.491 67.596 166.131 67.556 165.779 67.476C165.435 67.388 165.107 67.276 164.795 67.14C164.491 66.996 164.215 66.84 163.967 66.672L164.543 65.676C164.735 65.812 164.955 65.944 165.203 66.072C165.451 66.192 165.707 66.288 165.971 66.36C166.243 66.432 166.499 66.468 166.739 66.468C167.003 66.468 167.263 66.424 167.519 66.336C167.775 66.24 167.987 66.096 168.155 65.904C168.323 65.704 168.407 65.444 168.407 65.124C168.407 64.852 168.331 64.624 168.179 64.44C168.035 64.248 167.839 64.084 167.591 63.948C167.351 63.812 167.091 63.692 166.811 63.588C166.539 63.484 166.263 63.368 165.983 63.24C165.703 63.112 165.443 62.96 165.203 62.784C164.963 62.6 164.767 62.376 164.615 62.112C164.471 61.84 164.399 61.508 164.399 61.116C164.399 60.652 164.507 60.248 164.723 59.904C164.947 59.552 165.255 59.276 165.647 59.076C166.039 58.876 166.491 58.764 167.003 58.74C167.587 58.74 168.095 58.812 168.527 58.956C168.959 59.1 169.343 59.272 169.679 59.472L169.187 60.456ZM171.88 69.912L175.204 62.472H176.332L173.092 69.912H171.88ZM173.152 67.536L170.716 62.472H172.108L174.1 66.912L173.152 67.536ZM179.047 67.608C178.679 67.608 178.323 67.544 177.979 67.416C177.635 67.28 177.351 67.084 177.127 66.828L177.655 66.132C177.871 66.332 178.087 66.484 178.303 66.588C178.527 66.684 178.739 66.732 178.939 66.732C179.099 66.732 179.243 66.716 179.371 66.684C179.499 66.644 179.603 66.58 179.683 66.492C179.763 66.404 179.803 66.288 179.803 66.144C179.803 65.976 179.747 65.844 179.635 65.748C179.523 65.652 179.379 65.572 179.203 65.508C179.027 65.444 178.839 65.384 178.639 65.328C178.215 65.192 177.895 65 177.679 64.752C177.463 64.496 177.355 64.196 177.355 63.852C177.355 63.588 177.419 63.34 177.547 63.108C177.683 62.868 177.887 62.672 178.159 62.52C178.431 62.368 178.767 62.292 179.167 62.292C179.535 62.292 179.859 62.336 180.139 62.424C180.419 62.504 180.679 62.644 180.919 62.844L180.439 63.588C180.295 63.444 180.123 63.336 179.923 63.264C179.731 63.184 179.555 63.14 179.395 63.132C179.251 63.132 179.119 63.156 178.999 63.204C178.879 63.244 178.783 63.308 178.711 63.396C178.639 63.476 178.603 63.572 178.603 63.684C178.595 63.844 178.647 63.976 178.759 64.08C178.879 64.176 179.031 64.256 179.215 64.32C179.399 64.376 179.579 64.436 179.755 64.5C180.003 64.572 180.223 64.672 180.415 64.8C180.607 64.92 180.759 65.068 180.871 65.244C180.983 65.42 181.039 65.644 181.039 65.916C181.039 66.212 180.967 66.492 180.823 66.756C180.679 67.012 180.459 67.22 180.163 67.38C179.867 67.532 179.495 67.608 179.047 67.608ZM183.144 60.264H184.38V62.484H185.724V63.456H184.38V67.5H183.144V63.456H182.256V62.484H183.144V60.264ZM189.522 67.62C188.938 67.62 188.438 67.508 188.022 67.284C187.606 67.052 187.286 66.736 187.062 66.336C186.838 65.928 186.726 65.464 186.726 64.944C186.726 64.448 186.85 64 187.098 63.6C187.354 63.192 187.694 62.868 188.118 62.628C188.55 62.388 189.026 62.268 189.546 62.268C190.218 62.268 190.774 62.464 191.214 62.856C191.662 63.248 191.962 63.796 192.114 64.5L188.022 65.916L187.734 65.196L191.01 64.02L190.758 64.176C190.662 63.928 190.51 63.712 190.302 63.528C190.094 63.336 189.81 63.24 189.45 63.24C189.162 63.24 188.902 63.312 188.67 63.456C188.446 63.592 188.266 63.784 188.13 64.032C188.002 64.272 187.938 64.556 187.938 64.884C187.938 65.22 188.006 65.516 188.142 65.772C188.286 66.02 188.478 66.216 188.718 66.36C188.966 66.504 189.242 66.576 189.546 66.576C189.762 66.576 189.966 66.536 190.158 66.456C190.358 66.376 190.546 66.276 190.722 66.156L191.286 67.068C191.022 67.236 190.734 67.372 190.422 67.476C190.118 67.572 189.818 67.62 189.522 67.62ZM194.69 62.472L194.798 63.552L194.75 63.468C194.942 63.092 195.206 62.8 195.542 62.592C195.878 62.376 196.266 62.268 196.706 62.268C196.978 62.268 197.222 62.312 197.438 62.4C197.662 62.488 197.846 62.612 197.99 62.772C198.134 62.932 198.226 63.132 198.266 63.372L198.206 63.408C198.406 63.056 198.67 62.78 198.998 62.58C199.334 62.372 199.69 62.268 200.066 62.268C200.554 62.268 200.942 62.408 201.23 62.688C201.526 62.968 201.678 63.328 201.686 63.768V67.5H200.462V64.236C200.454 63.988 200.394 63.78 200.282 63.612C200.178 63.444 199.99 63.352 199.718 63.336C199.43 63.336 199.174 63.424 198.95 63.6C198.734 63.776 198.566 64.004 198.446 64.284C198.326 64.564 198.262 64.864 198.254 65.184V67.5H197.018V64.236C197.01 63.988 196.95 63.78 196.838 63.612C196.726 63.444 196.53 63.352 196.25 63.336C195.962 63.336 195.71 63.424 195.494 63.6C195.278 63.776 195.11 64.008 194.99 64.296C194.878 64.576 194.822 64.872 194.822 65.184V67.5H193.586V62.472H194.69Z" fill="#515B92"/>
</svg>
