<svg width="127" height="42" viewBox="0 0 127 42" fill="none" xmlns="http://www.w3.org/2000/svg">
<path d="M1.63225 9.576H13.2483V12.048H8.66425V27H6.09625V12.048H1.63225V9.576ZM18.509 9.576L24.125 23.592L22.661 23.328L27.917 9.576H30.941L23.189 27.816L15.461 9.576H18.509ZM39.1933 9.576C40.4893 9.576 41.5933 9.8 42.5053 10.248C43.4333 10.68 44.1373 11.304 44.6173 12.12C45.1133 12.936 45.3613 13.928 45.3613 15.096C45.3613 15.784 45.2573 16.464 45.0493 17.136C44.8413 17.808 44.5053 18.424 44.0413 18.984C43.5933 19.528 42.9933 19.968 42.2413 20.304C41.4893 20.624 40.5773 20.784 39.5053 20.784H36.9613V27H34.3933V9.576H39.1933ZM39.5053 18.312C40.1453 18.312 40.6813 18.208 41.1133 18C41.5453 17.776 41.8813 17.496 42.1213 17.16C42.3773 16.824 42.5533 16.48 42.6493 16.128C42.7613 15.76 42.8173 15.432 42.8173 15.144C42.8173 14.824 42.7613 14.488 42.6493 14.136C42.5533 13.768 42.3853 13.432 42.1453 13.128C41.9053 12.808 41.5773 12.552 41.1613 12.36C40.7453 12.152 40.2253 12.048 39.6013 12.048H36.9613V18.312H39.5053ZM58.0262 12.912C57.4182 12.592 56.7622 12.32 56.0582 12.096C55.3542 11.872 54.6742 11.76 54.0182 11.76C53.1222 11.76 52.4102 11.968 51.8822 12.384C51.3542 12.784 51.0902 13.336 51.0902 14.04C51.0902 14.536 51.2662 14.968 51.6182 15.336C51.9702 15.704 52.4262 16.024 52.9862 16.296C53.5462 16.568 54.1382 16.824 54.7622 17.064C55.2902 17.256 55.8102 17.488 56.3222 17.76C56.8502 18.016 57.3222 18.336 57.7382 18.72C58.1702 19.104 58.5062 19.584 58.7462 20.16C59.0022 20.72 59.1302 21.408 59.1302 22.224C59.1302 23.152 58.8982 23.992 58.4342 24.744C57.9862 25.496 57.3302 26.096 56.4662 26.544C55.6182 26.976 54.5862 27.192 53.3702 27.192C52.6342 27.192 51.9142 27.112 51.2102 26.952C50.5222 26.776 49.8662 26.552 49.2422 26.28C48.6342 25.992 48.0822 25.68 47.5862 25.344L48.7382 23.352C49.1222 23.624 49.5622 23.888 50.0582 24.144C50.5542 24.384 51.0662 24.576 51.5942 24.72C52.1382 24.864 52.6502 24.936 53.1302 24.936C53.6582 24.936 54.1782 24.848 54.6902 24.672C55.2022 24.48 55.6262 24.192 55.9622 23.808C56.2982 23.408 56.4662 22.888 56.4662 22.248C56.4662 21.704 56.3142 21.248 56.0102 20.88C55.7222 20.496 55.3302 20.168 54.8342 19.896C54.3542 19.624 53.8342 19.384 53.2742 19.176C52.7302 18.968 52.1782 18.736 51.6182 18.48C51.0582 18.224 50.5382 17.92 50.0582 17.568C49.5782 17.2 49.1862 16.752 48.8822 16.224C48.5942 15.68 48.4502 15.016 48.4502 14.232C48.4502 13.304 48.6662 12.496 49.0982 11.808C49.5462 11.104 50.1622 10.552 50.9462 10.152C51.7302 9.752 52.6342 9.528 53.6582 9.48C54.8262 9.48 55.8422 9.624 56.7062 9.912C57.5702 10.2 58.3382 10.544 59.0102 10.944L58.0262 12.912ZM72.095 12.912C71.487 12.592 70.831 12.32 70.127 12.096C69.423 11.872 68.743 11.76 68.087 11.76C67.191 11.76 66.479 11.968 65.951 12.384C65.423 12.784 65.159 13.336 65.159 14.04C65.159 14.536 65.335 14.968 65.687 15.336C66.039 15.704 66.495 16.024 67.055 16.296C67.615 16.568 68.207 16.824 68.831 17.064C69.359 17.256 69.879 17.488 70.391 17.76C70.919 18.016 71.391 18.336 71.807 18.72C72.239 19.104 72.575 19.584 72.815 20.16C73.071 20.72 73.199 21.408 73.199 22.224C73.199 23.152 72.967 23.992 72.503 24.744C72.055 25.496 71.399 26.096 70.535 26.544C69.687 26.976 68.655 27.192 67.439 27.192C66.703 27.192 65.983 27.112 65.279 26.952C64.591 26.776 63.935 26.552 63.311 26.28C62.703 25.992 62.151 25.68 61.655 25.344L62.807 23.352C63.191 23.624 63.631 23.888 64.127 24.144C64.623 24.384 65.135 24.576 65.663 24.72C66.207 24.864 66.719 24.936 67.199 24.936C67.727 24.936 68.247 24.848 68.759 24.672C69.271 24.48 69.695 24.192 70.031 23.808C70.367 23.408 70.535 22.888 70.535 22.248C70.535 21.704 70.383 21.248 70.079 20.88C69.791 20.496 69.399 20.168 68.903 19.896C68.423 19.624 67.903 19.384 67.343 19.176C66.799 18.968 66.247 18.736 65.687 18.48C65.127 18.224 64.607 17.92 64.127 17.568C63.647 17.2 63.255 16.752 62.951 16.224C62.663 15.68 62.519 15.016 62.519 14.232C62.519 13.304 62.735 12.496 63.167 11.808C63.615 11.104 64.231 10.552 65.015 10.152C65.799 9.752 66.703 9.528 67.727 9.48C68.895 9.48 69.911 9.624 70.775 9.912C71.639 10.2 72.407 10.544 73.079 10.944L72.095 12.912Z" fill="#515B92"/>
<path d="M95.5 37.625H116.5L106 27.125L95.5 37.625Z" fill="#515B92"/>
<path d="M121.75 4.375H90.25C88.325 4.375 86.75 5.95 86.75 7.875V28.875C86.75 30.8 88.325 32.375 90.25 32.375H97.25V28.875H90.25V7.875H121.75V28.875H114.75V32.375H121.75C123.675 32.375 125.25 30.8 125.25 28.875V7.875C125.25 5.95 123.675 4.375 121.75 4.375Z" fill="#515B92"/>
</svg>
